<svg width="100" height="81" viewBox="0 0 100 81" fill="none" xmlns="http://www.w3.org/2000/svg">
<path d="M4.72414 2.36207C4.72414 3.6666 3.6666 4.72414 2.36207 4.72414C1.05753 4.72414 0 3.6666 0 2.36207C0 1.05753 1.05753 0 2.36207 0C3.6666 0 4.72414 1.05753 4.72414 2.36207Z" fill="#890A0D"/>
<path d="M23.6207 2.36207C23.6207 3.6666 22.5632 4.72414 21.2586 4.72414C19.9541 4.72414 18.8966 3.6666 18.8966 2.36207C18.8966 1.05753 19.9541 0 21.2586 0C22.5632 0 23.6207 1.05753 23.6207 2.36207Z" fill="#890A0D"/>
<path d="M42.5172 2.36207C42.5172 3.6666 41.4597 4.72414 40.1552 4.72414C38.8506 4.72414 37.7931 3.6666 37.7931 2.36207C37.7931 1.05753 38.8506 0 40.1552 0C41.4597 0 42.5172 1.05753 42.5172 2.36207Z" fill="#890A0D"/>
<path d="M61.4138 2.36207C61.4138 3.6666 60.3563 4.72414 59.0517 4.72414C57.7472 4.72414 56.6897 3.6666 56.6897 2.36207C56.6897 1.05753 57.7472 0 59.0517 0C60.3563 0 61.4138 1.05753 61.4138 2.36207Z" fill="#890A0D"/>
<path d="M80.3103 2.36207C80.3103 3.6666 79.2528 4.72414 77.9483 4.72414C76.6437 4.72414 75.5862 3.6666 75.5862 2.36207C75.5862 1.05753 76.6437 0 77.9483 0C79.2528 0 80.3103 1.05753 80.3103 2.36207Z" fill="#890A0D"/>
<path d="M99.2069 2.36207C99.2069 3.6666 98.1494 4.72414 96.8448 4.72414C95.5403 4.72414 94.4828 3.6666 94.4828 2.36207C94.4828 1.05753 95.5403 0 96.8448 0C98.1494 0 99.2069 1.05753 99.2069 2.36207Z" fill="#890A0D"/>
<path d="M4.72414 21.2586C4.72414 22.5632 3.6666 23.6207 2.36207 23.6207C1.05753 23.6207 0 22.5632 0 21.2586C0 19.9541 1.05753 18.8965 2.36207 18.8965C3.6666 18.8965 4.72414 19.9541 4.72414 21.2586Z" fill="#890A0D"/>
<path d="M23.6207 21.2586C23.6207 22.5632 22.5632 23.6207 21.2586 23.6207C19.9541 23.6207 18.8966 22.5632 18.8966 21.2586C18.8966 19.9541 19.9541 18.8965 21.2586 18.8965C22.5632 18.8965 23.6207 19.9541 23.6207 21.2586Z" fill="#890A0D"/>
<path d="M4.72414 40.1552C4.72414 41.4597 3.6666 42.5172 2.36207 42.5172C1.05753 42.5172 0 41.4597 0 40.1552C0 38.8506 1.05753 37.7931 2.36207 37.7931C3.6666 37.7931 4.72414 38.8506 4.72414 40.1552Z" fill="#890A0D"/>
<path d="M23.6207 40.1552C23.6207 41.4597 22.5632 42.5172 21.2586 42.5172C19.9541 42.5172 18.8966 41.4597 18.8966 40.1552C18.8966 38.8506 19.9541 37.7931 21.2586 37.7931C22.5632 37.7931 23.6207 38.8506 23.6207 40.1552Z" fill="#890A0D"/>
<path d="M4.72414 59.0517C4.72414 60.3563 3.6666 61.4138 2.36207 61.4138C1.05753 61.4138 0 60.3563 0 59.0517C0 57.7472 1.05753 56.6897 2.36207 56.6897C3.6666 56.6897 4.72414 57.7472 4.72414 59.0517Z" fill="#890A0D"/>
<path d="M23.6207 59.0517C23.6207 60.3563 22.5632 61.4138 21.2586 61.4138C19.9541 61.4138 18.8966 60.3563 18.8966 59.0517C18.8966 57.7472 19.9541 56.6897 21.2586 56.6897C22.5632 56.6897 23.6207 57.7472 23.6207 59.0517Z" fill="#890A0D"/>
<path d="M4.72414 77.9483C4.72414 79.2528 3.6666 80.3103 2.36207 80.3103C1.05753 80.3103 0 79.2528 0 77.9483C0 76.6437 1.05753 75.5862 2.36207 75.5862C3.6666 75.5862 4.72414 76.6437 4.72414 77.9483Z" fill="#890A0D"/>
<path d="M23.6207 77.9483C23.6207 79.2528 22.5632 80.3103 21.2586 80.3103C19.9541 80.3103 18.8966 79.2528 18.8966 77.9483C18.8966 76.6437 19.9541 75.5862 21.2586 75.5862C22.5632 75.5862 23.6207 76.6437 23.6207 77.9483Z" fill="#890A0D"/>
<path d="M42.5172 21.2586C42.5172 22.5632 41.4597 23.6207 40.1552 23.6207C38.8506 23.6207 37.7931 22.5632 37.7931 21.2586C37.7931 19.9541 38.8506 18.8965 40.1552 18.8965C41.4597 18.8965 42.5172 19.9541 42.5172 21.2586Z" fill="#890A0D"/>
<path d="M61.4138 21.2586C61.4138 22.5632 60.3563 23.6207 59.0517 23.6207C57.7472 23.6207 56.6897 22.5632 56.6897 21.2586C56.6897 19.9541 57.7472 18.8965 59.0517 18.8965C60.3563 18.8965 61.4138 19.9541 61.4138 21.2586Z" fill="#890A0D"/>
<path d="M80.3103 21.2586C80.3103 22.5632 79.2528 23.6207 77.9483 23.6207C76.6437 23.6207 75.5862 22.5632 75.5862 21.2586C75.5862 19.9541 76.6437 18.8965 77.9483 18.8965C79.2528 18.8965 80.3103 19.9541 80.3103 21.2586Z" fill="#890A0D"/>
<path d="M99.2069 21.2586C99.2069 22.5632 98.1494 23.6207 96.8448 23.6207C95.5403 23.6207 94.4828 22.5632 94.4828 21.2586C94.4828 19.9541 95.5403 18.8965 96.8448 18.8965C98.1494 18.8965 99.2069 19.9541 99.2069 21.2586Z" fill="#890A0D"/>
<path d="M42.5172 40.1552C42.5172 41.4597 41.4597 42.5172 40.1552 42.5172C38.8506 42.5172 37.7931 41.4597 37.7931 40.1552C37.7931 38.8506 38.8506 37.7931 40.1552 37.7931C41.4597 37.7931 42.5172 38.8506 42.5172 40.1552Z" fill="#890A0D"/>
<path d="M61.4138 40.1552C61.4138 41.4597 60.3563 42.5172 59.0517 42.5172C57.7472 42.5172 56.6897 41.4597 56.6897 40.1552C56.6897 38.8506 57.7472 37.7931 59.0517 37.7931C60.3563 37.7931 61.4138 38.8506 61.4138 40.1552Z" fill="#890A0D"/>
<path d="M80.3103 40.1552C80.3103 41.4597 79.2528 42.5172 77.9483 42.5172C76.6437 42.5172 75.5862 41.4597 75.5862 40.1552C75.5862 38.8506 76.6437 37.7931 77.9483 37.7931C79.2528 37.7931 80.3103 38.8506 80.3103 40.1552Z" fill="#890A0D"/>
<path d="M99.2069 40.1552C99.2069 41.4597 98.1494 42.5172 96.8448 42.5172C95.5403 42.5172 94.4828 41.4597 94.4828 40.1552C94.4828 38.8506 95.5403 37.7931 96.8448 37.7931C98.1494 37.7931 99.2069 38.8506 99.2069 40.1552Z" fill="#890A0D"/>
<path d="M42.5172 59.0517C42.5172 60.3563 41.4597 61.4138 40.1552 61.4138C38.8506 61.4138 37.7931 60.3563 37.7931 59.0517C37.7931 57.7472 38.8506 56.6897 40.1552 56.6897C41.4597 56.6897 42.5172 57.7472 42.5172 59.0517Z" fill="#890A0D"/>
<path d="M61.4138 59.0517C61.4138 60.3563 60.3563 61.4138 59.0517 61.4138C57.7472 61.4138 56.6897 60.3563 56.6897 59.0517C56.6897 57.7472 57.7472 56.6897 59.0517 56.6897C60.3563 56.6897 61.4138 57.7472 61.4138 59.0517Z" fill="#890A0D"/>
<path d="M80.3103 59.0517C80.3103 60.3563 79.2528 61.4138 77.9483 61.4138C76.6437 61.4138 75.5862 60.3563 75.5862 59.0517C75.5862 57.7472 76.6437 56.6897 77.9483 56.6897C79.2528 56.6897 80.3103 57.7472 80.3103 59.0517Z" fill="#890A0D"/>
<path d="M99.2069 59.0517C99.2069 60.3563 98.1494 61.4138 96.8448 61.4138C95.5403 61.4138 94.4828 60.3563 94.4828 59.0517C94.4828 57.7472 95.5403 56.6897 96.8448 56.6897C98.1494 56.6897 99.2069 57.7472 99.2069 59.0517Z" fill="#890A0D"/>
<path d="M42.5172 77.9483C42.5172 79.2528 41.4597 80.3103 40.1552 80.3103C38.8506 80.3103 37.7931 79.2528 37.7931 77.9483C37.7931 76.6437 38.8506 75.5862 40.1552 75.5862C41.4597 75.5862 42.5172 76.6437 42.5172 77.9483Z" fill="#890A0D"/>
<path d="M61.4138 77.9483C61.4138 79.2528 60.3563 80.3103 59.0517 80.3103C57.7472 80.3103 56.6897 79.2528 56.6897 77.9483C56.6897 76.6437 57.7472 75.5862 59.0517 75.5862C60.3563 75.5862 61.4138 76.6437 61.4138 77.9483Z" fill="#890A0D"/>
<path d="M80.3103 77.9483C80.3103 79.2528 79.2528 80.3103 77.9483 80.3103C76.6437 80.3103 75.5862 79.2528 75.5862 77.9483C75.5862 76.6437 76.6437 75.5862 77.9483 75.5862C79.2528 75.5862 80.3103 76.6437 80.3103 77.9483Z" fill="#890A0D"/>
<path d="M99.2069 77.9483C99.2069 79.2528 98.1494 80.3103 96.8448 80.3103C95.5403 80.3103 94.4828 79.2528 94.4828 77.9483C94.4828 76.6437 95.5403 75.5862 96.8448 75.5862C98.1494 75.5862 99.2069 76.6437 99.2069 77.9483Z" fill="#890A0D"/>
</svg>
