<?xml version="1.0" encoding="UTF-8"?>
<!DOCTYPE svg PUBLIC "-//W3C//DTD SVG 1.1//EN" "http://www.w3.org/Graphics/SVG/1.1/DTD/svg11.dtd">
<svg version="1.1" baseProfile="full" width="1000" xmlns="http://www.w3.org/2000/svg">
	<svg width="32" height="32" viewBox="0 0 32 32" fill="none" xmlns="http://www.w3.org/2000/svg">
		<g id="Facebook">
			<g id="Facebook_2">
				<path id="Vector" d="M17.0682 26.6662V16.9351H20.3346L20.8236 13.1427H17.0682V10.7214C17.0682 9.62339 17.3732 8.87507 18.9478 8.87507L20.956 8.87414V5.48228C20.6085 5.43623 19.4165 5.33301 18.0297 5.33301C15.1343 5.33301 13.152 7.10028 13.152 10.346V13.1428H9.8772V16.9352H13.1519V26.6663L17.0682 26.6662Z" fill="white"/>
			</g>
		</g>
	</svg>

	<svg width="32" height="32" viewBox="0 0 32 32" fill="none" xmlns="http://www.w3.org/2000/svg">
		<g id="Twitter">
			<g id="Twitter_2">
				<path id="Path" d="M23.8417 12.542C23.8417 12.717 23.8417 12.892 23.8417 13.042C23.8417 18.217 19.8917 24.192 12.6917 24.192C10.4667 24.192 8.41675 23.542 6.66675 22.442C6.96675 22.467 7.29175 22.492 7.59175 22.492C9.41675 22.492 11.1167 21.867 12.4667 20.817C10.7417 20.792 9.29175 19.642 8.81675 18.092C9.06675 18.142 9.29175 18.167 9.56675 18.167C9.91675 18.167 10.2667 18.117 10.5917 18.017C8.79175 17.667 7.44175 16.092 7.44175 14.192C7.44175 14.167 7.44175 14.167 7.44175 14.142C7.96675 14.442 8.56675 14.617 9.21675 14.642C8.16675 13.942 7.46675 12.742 7.46675 11.367C7.46675 10.642 7.66675 9.96699 7.99175 9.39199C9.91675 11.767 12.8167 13.317 16.0667 13.492C15.9917 13.217 15.9667 12.892 15.9667 12.592C15.9667 10.417 17.7167 8.66699 19.8917 8.66699C21.0167 8.66699 22.0417 9.14199 22.7417 9.89199C23.6417 9.71699 24.4667 9.39199 25.2417 8.94199C24.9417 9.86699 24.3167 10.617 23.5167 11.117C24.3167 11.017 25.0667 10.817 25.7667 10.492C25.2667 11.292 24.6167 11.992 23.8417 12.542Z" fill="white"/>
			</g>
		</g>
	</svg>

	<svg width="32" height="32" viewBox="0 0 32 32" fill="none" xmlns="http://www.w3.org/2000/svg">
		<g id="LinkedIn">
			<g id="LinkedIn_2">
				<g id="Group">
					<path id="Path" d="M24.8833 23.5497C23.8333 23.5247 22.8083 23.5247 21.7583 23.5497C21.5333 23.5497 21.4833 23.4997 21.4833 23.2747C21.4833 21.4247 21.4833 19.5497 21.4833 17.6997C21.4833 17.2747 21.4583 16.8497 21.3333 16.4497C20.9583 15.1497 19.4583 14.6747 18.3833 15.5497C17.8083 15.9997 17.5833 16.6247 17.5833 17.3747C17.5833 19.1247 17.5833 20.8747 17.5833 22.6247C17.5833 22.8497 17.5583 23.0747 17.5833 23.3247C17.6083 23.5247 17.5083 23.5747 17.3333 23.5497C16.2583 23.5497 15.2083 23.5497 14.1333 23.5497C13.9333 23.5497 13.8833 23.4997 13.8833 23.2997C13.9083 21.7247 13.9083 20.1497 13.9083 18.5497C13.9083 16.5997 13.9083 14.6497 13.8833 12.7247C13.8833 12.4997 13.9333 12.4497 14.1333 12.4497C15.2083 12.4497 16.2583 12.4497 17.3333 12.4497C17.5333 12.4497 17.5833 12.4997 17.5833 12.6997C17.5833 13.0997 17.5833 13.4997 17.5833 13.9747C17.6583 13.8997 17.6833 13.8747 17.7083 13.8497C18.6833 12.4247 20.0583 12.0247 21.6833 12.2747C23.5583 12.5747 24.7583 13.8747 25.0583 15.8747C25.1333 16.3497 25.1583 16.8247 25.1583 17.2997C25.1583 19.2997 25.1583 21.2747 25.1583 23.2747C25.1583 23.4747 25.1083 23.5497 24.8833 23.5497Z" fill="white"/>
					<path id="Path_2" d="M11.8834 18.0002C11.8834 19.7502 11.8834 21.5002 11.8834 23.2502C11.8834 23.4752 11.8334 23.5502 11.6084 23.5502C10.5584 23.5252 9.50837 23.5502 8.45837 23.5502C8.25837 23.5502 8.20837 23.5002 8.20837 23.3002C8.20837 19.7752 8.20837 16.2252 8.20837 12.7002C8.20837 12.5252 8.25837 12.4502 8.45837 12.4502C9.53337 12.4502 10.6084 12.4502 11.6834 12.4502C11.9084 12.4502 11.9334 12.5252 11.9334 12.7252C11.8834 14.4752 11.8834 16.2252 11.8834 18.0002Z" fill="white"/>
					<path id="Path_3" d="M12.0584 9.55001C11.8084 10.55 10.7834 11.125 9.60838 10.925C8.35838 10.725 7.65838 9.50001 8.10838 8.30001C8.40838 7.55001 9.13338 7.10001 10.0584 7.12501C11.4584 7.10001 12.3834 8.22501 12.0584 9.55001Z" fill="white"/>
				</g>
			</g>
		</g>
	</svg>

	<svg  width="503" height="503" viewBox="0 0 503 503" fill="none" xmlns="http://www.w3.org/2000/svg">
			<g id="Dashed">
				<circle cx="251.5" cy="251.5" r="250.5" stroke="#890A0D" stroke-width="2" stroke-linecap="round" stroke-linejoin="round" stroke-dasharray="8 12"/>
			</g>		
	</svg>



</svg>