<svg width="32" height="32" viewBox="0 0 32 32" fill="none" xmlns="http://www.w3.org/2000/svg">
<g id="Twitter">
<g id="Twitter_2">
<path id="Path" d="M23.8417 12.542C23.8417 12.717 23.8417 12.892 23.8417 13.042C23.8417 18.217 19.8917 24.192 12.6917 24.192C10.4667 24.192 8.41675 23.542 6.66675 22.442C6.96675 22.467 7.29175 22.492 7.59175 22.492C9.41675 22.492 11.1167 21.867 12.4667 20.817C10.7417 20.792 9.29175 19.642 8.81675 18.092C9.06675 18.142 9.29175 18.167 9.56675 18.167C9.91675 18.167 10.2667 18.117 10.5917 18.017C8.79175 17.667 7.44175 16.092 7.44175 14.192C7.44175 14.167 7.44175 14.167 7.44175 14.142C7.96675 14.442 8.56675 14.617 9.21675 14.642C8.16675 13.942 7.46675 12.742 7.46675 11.367C7.46675 10.642 7.66675 9.96699 7.99175 9.39199C9.91675 11.767 12.8167 13.317 16.0667 13.492C15.9917 13.217 15.9667 12.892 15.9667 12.592C15.9667 10.417 17.7167 8.66699 19.8917 8.66699C21.0167 8.66699 22.0417 9.14199 22.7417 9.89199C23.6417 9.71699 24.4667 9.39199 25.2417 8.94199C24.9417 9.86699 24.3167 10.617 23.5167 11.117C24.3167 11.017 25.0667 10.817 25.7667 10.492C25.2667 11.292 24.6167 11.992 23.8417 12.542Z" fill="white"/>
</g>
</g>
</svg>
