<svg width="227" height="159" viewBox="0 0 227 159" fill="none" xmlns="http://www.w3.org/2000/svg">
<line x1="21.6572" y1="157.6" x2="21.6572" y2="1.00011" stroke="#890A0D" stroke-width="2" stroke-linecap="round"/>
<line x1="44.3143" y1="157.6" x2="44.3143" y2="1.00011" stroke="#890A0D" stroke-width="2" stroke-linecap="round"/>
<line x1="66.9715" y1="157.6" x2="66.9715" y2="1.00011" stroke="#890A0D" stroke-width="2" stroke-linecap="round"/>
<line x1="89.6287" y1="157.6" x2="89.6287" y2="1.00011" stroke="#890A0D" stroke-width="2" stroke-linecap="round"/>
<line x1="112.286" y1="157.6" x2="112.286" y2="1.00011" stroke="#890A0D" stroke-width="2" stroke-linecap="round"/>
<line x1="134.943" y1="157.6" x2="134.943" y2="1.00011" stroke="#890A0D" stroke-width="2" stroke-linecap="round"/>
<line x1="157.6" y1="157.6" x2="157.6" y2="1.00011" stroke="#890A0D" stroke-width="2" stroke-linecap="round"/>
<line x1="180.257" y1="157.6" x2="180.257" y2="1.00011" stroke="#890A0D" stroke-width="2" stroke-linecap="round"/>
<line x1="202.914" y1="157.6" x2="202.914" y2="1.00011" stroke="#890A0D" stroke-width="2" stroke-linecap="round"/>
<line x1="1" y1="21.6572" x2="225.571" y2="21.6572" stroke="#890A0D" stroke-width="2" stroke-linecap="round"/>
<line x1="1" y1="44.3145" x2="225.571" y2="44.3145" stroke="#890A0D" stroke-width="2" stroke-linecap="round"/>
<line x1="1" y1="66.9717" x2="225.571" y2="66.9717" stroke="#890A0D" stroke-width="2" stroke-linecap="round"/>
<line x1="1" y1="89.6287" x2="225.571" y2="89.6287" stroke="#890A0D" stroke-width="2" stroke-linecap="round"/>
<line x1="1" y1="112.286" x2="225.571" y2="112.286" stroke="#890A0D" stroke-width="2" stroke-linecap="round"/>
<line x1="1" y1="134.943" x2="225.571" y2="134.943" stroke="#890A0D" stroke-width="2" stroke-linecap="round"/>
</svg>
